<svg preserveAspectRatio="none" width="100%" height="100%" overflow="visible" style="display: block;" viewBox="0 0 18.3333 18.3333" fill="none" xmlns="http://www.w3.org/2000/svg">
<path id="Vector (Stroke)" fill-rule="evenodd" clip-rule="evenodd" d="M9.16667 1.66667C5.02453 1.66667 1.66667 5.02453 1.66667 9.16667C1.66667 13.3088 5.02453 16.6667 9.16667 16.6667C13.3088 16.6667 16.6667 13.3088 16.6667 9.16667C16.6667 5.02453 13.3088 1.66667 9.16667 1.66667ZM0 9.16667C0 4.10406 4.10406 0 9.16667 0C14.2293 0 18.3333 4.10406 18.3333 9.16667C18.3333 14.2293 14.2293 18.3333 9.16667 18.3333C4.10406 18.3333 0 14.2293 0 9.16667ZM9.16667 3.33333C9.6269 3.33333 10 3.70643 10 4.16667V8.65164L12.8727 10.088C13.2843 10.2938 13.4512 10.7944 13.2454 11.206C13.0395 11.6177 12.539 11.7845 12.1273 11.5787L8.79399 9.91202C8.51167 9.77086 8.33333 9.48231 8.33333 9.16667V4.16667C8.33333 3.70643 8.70643 3.33333 9.16667 3.33333Z" fill="var(--fill-0, #2DEBFC)"/>
</svg>
