<svg preserveAspectRatio="none" width="100%" height="100%" overflow="visible" style="display: block;" viewBox="0 0 18.3333 18.3333" fill="none" xmlns="http://www.w3.org/2000/svg">
<path id="Vector (Stroke)" fill-rule="evenodd" clip-rule="evenodd" d="M5.69101 1.66667C5.58104 1.66658 5.47215 1.68826 5.3706 1.73045C5.26906 1.77264 5.17686 1.83451 5.09934 1.9125L5.09759 1.91426L2.84518 4.16667H15.4882L13.2357 1.91426L13.234 1.9125C13.1565 1.83451 13.0643 1.77264 12.9627 1.73045C12.8612 1.68826 12.7523 1.66658 12.6423 1.66667H5.69101ZM16.6667 5.83333H1.66667V7.5C1.66667 7.72102 1.75446 7.93298 1.91074 8.08926C2.06193 8.24044 2.26522 8.32753 2.4784 8.33305C2.77615 8.31155 3.05973 8.19651 3.28846 8.00404C3.30414 7.99085 3.3203 7.97824 3.33691 7.96624C3.57838 7.79173 3.86873 7.6978 4.16667 7.6978C4.4646 7.6978 4.75495 7.79173 4.99643 7.96624C5.01304 7.97824 5.02919 7.99085 5.04487 8.00404C5.26807 8.19185 5.54349 8.30594 5.83333 8.33133C6.12318 8.30594 6.3986 8.19185 6.6218 8.00404C6.63747 7.99085 6.65363 7.97824 6.67024 7.96624C6.91172 7.79173 7.20207 7.6978 7.5 7.6978C7.79793 7.6978 8.08828 7.79173 8.32976 7.96624C8.34637 7.97824 8.36253 7.99085 8.3782 8.00404C8.6014 8.19185 8.87682 8.30594 9.16667 8.33133C9.45651 8.30594 9.73194 8.19185 9.95513 8.00404C9.97081 7.99085 9.98697 7.97824 10.0036 7.96624C10.2451 7.79173 10.5354 7.6978 10.8333 7.6978C11.1313 7.6978 11.4216 7.79173 11.6631 7.96624C11.6797 7.97824 11.6959 7.99085 11.7115 8.00404C11.9347 8.19185 12.2102 8.30594 12.5 8.33133C12.7898 8.30594 13.0653 8.19185 13.2885 8.00404C13.3041 7.99085 13.3203 7.97824 13.3369 7.96624C13.5784 7.79173 13.8687 7.6978 14.1667 7.6978C14.4646 7.6978 14.755 7.79173 14.9964 7.96624C15.013 7.97824 15.0292 7.99085 15.0449 8.00404C15.2736 8.19651 15.5572 8.31155 15.8549 8.33305C16.0681 8.32753 16.2714 8.24044 16.4226 8.08926C16.5789 7.93298 16.6667 7.72101 16.6667 7.5V5.83333ZM15 9.85113C14.7035 9.75432 14.4223 9.61273 14.1667 9.43039C13.6925 9.76856 13.1307 9.96655 12.5458 9.99874C12.5153 10.0004 12.4847 10.0004 12.4542 9.99874C11.8693 9.96655 11.3075 9.76856 10.8333 9.43039C10.3592 9.76856 9.79734 9.96655 9.21246 9.99874C9.18196 10.0004 9.15138 10.0004 9.12087 9.99874C8.53599 9.96655 7.97416 9.76856 7.5 9.43039C7.02584 9.76856 6.46401 9.96655 5.87913 9.99874C5.84862 10.0004 5.81804 10.0004 5.78754 9.99874C5.20266 9.96655 4.64083 9.76856 4.16667 9.43039C3.911 9.61273 3.62985 9.75432 3.33333 9.85113V15.8333C3.33333 16.0543 3.42113 16.2663 3.57741 16.4226C3.73369 16.5789 3.94565 16.6667 4.16667 16.6667H5.83333V14.1667C5.83333 13.5036 6.09673 12.8677 6.56557 12.3989C7.03441 11.9301 7.67029 11.6667 8.33333 11.6667H10C10.663 11.6667 11.2989 11.9301 11.7678 12.3989C12.2366 12.8677 12.5 13.5036 12.5 14.1667V16.6667H14.1667C14.3877 16.6667 14.5996 16.5789 14.7559 16.4226C14.9122 16.2663 15 16.0543 15 15.8333V9.85113ZM10.8333 16.6667V14.1667C10.8333 13.9457 10.7455 13.7337 10.5893 13.5774C10.433 13.4211 10.221 13.3333 10 13.3333H8.33333C8.11232 13.3333 7.90036 13.4211 7.74408 13.5774C7.5878 13.7337 7.5 13.9457 7.5 14.1667V16.6667H10.8333ZM6.66667 18.3333H14.1667C14.8297 18.3333 15.4656 18.0699 15.9344 17.6011C16.4033 17.1323 16.6667 16.4964 16.6667 15.8333V9.85702C17.0149 9.73389 17.3349 9.53394 17.6011 9.26777C18.0699 8.79893 18.3333 8.16304 18.3333 7.5V5C18.3333 4.77899 18.2455 4.56703 18.0893 4.41075L14.416 0.737501C14.4156 0.737129 14.4153 0.736757 14.4149 0.736385C14.1826 0.50295 13.9064 0.317722 13.6022 0.191347C13.2978 0.0648551 12.9713 -0.000173747 12.6417 3.48641e-07C12.6418 3.48641e-07 12.6416 3.48641e-07 12.6417 3.48641e-07H5.69198M6.66667 18.3333H4.16667C3.50363 18.3333 2.86774 18.0699 2.3989 17.6011C1.93006 17.1323 1.66667 16.4964 1.66667 15.8333V9.85702C1.31841 9.73389 0.998404 9.53394 0.732233 9.26777C0.263392 8.79893 0 8.16304 0 7.5V5C0 4.77899 0.0877973 4.56703 0.244078 4.41075L3.91733 0.737501C3.91765 0.737171 3.91798 0.736841 3.91831 0.736511C4.15068 0.503017 4.42691 0.317744 4.73112 0.191347C5.03555 0.0648552 5.36232 -0.000173747 5.69198 3.48641e-07" fill="var(--fill-0, #2DEBFC)"/>
</svg>
