<svg viewBox="0 0 22.683 24.472" fill="none" xmlns="http://www.w3.org/2000/svg" aria-hidden="true">
  <path d="M0.188247 17.5948C-0.212318 16.9223 0.064308 16.051 0.779395 15.7327L7.11287 12.9137C7.4957 12.7434 7.93702 12.7669 8.2995 12.9772L11.9186 15.076C12.2791 15.2851 12.5182 15.6537 12.5623 16.0682L13.3012 23.0275C13.3836 23.8035 12.7717 24.4782 11.9914 24.4718L9.0637 24.4477C8.27581 24.4413 7.67291 23.744 7.7802 22.9635L8.36565 18.7044C8.41367 18.3551 8.2452 18.0115 7.9396 17.8355C7.63359 17.6592 7.25127 17.6863 6.97316 17.9039L3.63899 20.5125C3.01914 20.9975 2.11437 20.8283 1.71161 20.1522L0.188247 17.5948Z" fill="#FFFFFF"/>
  <path fill-rule="evenodd" clip-rule="evenodd" d="M13.9418 14.8855L19.5387 19.0025C19.8556 19.2356 20.3051 19.1377 20.4964 18.794L21.9468 16.1885C22.1378 15.8454 21.9851 15.4126 21.6211 15.2653L17.6556 13.6611C17.0813 13.4287 16.7054 12.8712 16.7054 12.2517C16.7054 11.6361 17.0766 11.0813 17.6456 10.8464L21.625 9.2037C21.9872 9.05417 22.1371 8.62156 21.9452 8.27992L20.5 5.70812C20.3078 5.36608 19.8595 5.26946 19.5435 5.50193L13.9418 9.62228C13.7745 9.74538 13.6757 9.94073 13.6757 10.1485V14.3593C13.6757 14.5671 13.7745 14.7624 13.9418 14.8855ZM13.5548 15.4117C13.2201 15.1655 13.0225 14.7748 13.0225 14.3593V10.1485C13.0225 9.73299 13.2201 9.34228 13.5548 9.0961L19.1564 4.97575C19.7885 4.5108 20.685 4.70405 21.0694 5.38813L22.5146 7.95993C22.8986 8.6432 22.5987 9.50842 21.8742 9.80748L17.8948 11.4502C17.5703 11.5841 17.3586 11.9006 17.3586 12.2517C17.3586 12.605 17.573 12.923 17.9005 13.0555L21.866 14.6598C22.5941 14.9543 22.8996 15.82 22.5176 16.5062L21.0672 19.1117C20.6845 19.7992 19.7854 19.9949 19.1516 19.5286L13.5548 15.4117Z" fill="#2DEBFC"/>
  <path d="M11.9185 9.38375C12.2791 9.17465 12.5182 8.80605 12.5622 8.39158L13.2999 1.44435C13.3827 0.664014 12.7638 -0.0127738 11.9792 0.000183035L9.05117 0.0485359C8.26771 0.0614737 7.6718 0.756401 7.77851 1.53267L8.36542 5.80245C8.41357 6.15273 8.24461 6.49724 7.93818 6.67362C7.63275 6.84942 7.25137 6.82327 6.97279 6.60742L3.59287 3.98858C2.97152 3.50715 2.0688 3.67945 1.66846 4.35588L0.182533 6.86653C-0.215377 7.53885 0.0618353 8.40778 0.775578 8.72545L7.11286 11.546C7.49568 11.7164 7.937 11.6928 8.29948 11.4826L11.9185 9.38375Z" fill="#2C85FC"/>
</svg>
